<?xml version="1.0" standalone="no"?>
<!DOCTYPE svg PUBLIC "-//W3C//DTD SVG 20010904//EN"
 "http://www.w3.org/TR/2001/REC-SVG-20010904/DTD/svg10.dtd">
<svg version="1.0" xmlns="http://www.w3.org/2000/svg"
 width="700.000000pt" height="700.000000pt" viewBox="0 0 700.000000 700.000000"
 preserveAspectRatio="xMidYMid meet">
<metadata>
Created by potrace 1.11, written by Peter Selinger 2001-2013
</metadata>
<g transform="translate(0.000000,700.000000) scale(0.100000,-0.100000)"
fill="#000000" stroke="none">
<path d="M1995 6131 l-1500 -868 0 -1769 0 -1768 1497 -863 1496 -863 1504
869 1503 869 0 703 0 703 -302 171 c-167 94 -305 174 -308 176 -3 3 135 84
305 180 l309 174 1 710 0 711 -1496 864 c-822 476 -1498 866 -1502 867 -4 1
-682 -389 -1507 -866z m2705 -551 l1189 -685 1 -341 0 -341 -630 -364 -629
-364 -1 -357 c0 -197 2 -358 4 -358 3 0 143 79 312 177 169 97 313 176 319
176 6 0 149 -75 318 -168 l307 -168 0 -341 -1 -341 -981 -565 c-540 -311
-1008 -580 -1040 -598 l-58 -33 0 1394 0 1394 365 214 c201 118 365 216 365
219 0 5 -559 334 -601 354 -14 7 -218 -107 -948 -530 -512 -296 -931 -540
-931 -543 1 -5 588 -350 611 -359 5 -2 119 59 254 137 l245 140 0 -1210 c0
-666 -4 -1209 -8 -1207 -5 2 -468 268 -1030 593 l-1022 590 0 1400 1 1400
1192 687 c656 378 1195 686 1199 685 4 -1 543 -310 1198 -687z"/>
</g>
</svg>
