<svg width="1024" height="512" clip-rule="evenodd" fill-rule="evenodd" stroke-linejoin="round" stroke-miterlimit="2" version="1.1" viewBox="0 0 1024 512" xml:space="preserve" xmlns="http://www.w3.org/2000/svg">
    <path d="m767.66 96.208c0-52.915-42.96-95.875-95.875-95.875h-319.58c-52.915 0-95.875 42.96-95.875 95.875v319.58c0 52.915 42.96 95.875 95.875 95.875h319.58c52.915 0 95.875-42.96 95.875-95.875zm-383.5 223.71c35.276 0 63.917 28.641 63.917 63.917s-28.641 63.917-63.917 63.917-63.917-28.641-63.917-63.917 28.641-63.917 63.917-63.917zm-63.917-63.917c105.19 0 191.75 86.559 191.75 191.75h63.917c0-140.26-115.41-255.67-255.67-255.67zm0-127.83c175.32 0 319.58 144.27 319.58 319.58h63.917c0-210.38-173.12-383.5-383.5-383.5z" fill="#e64f2d" stroke-width="1.9974"/>
</svg>
