<?xml version="1.0" encoding="UTF-8" standalone="no"?>
<svg
   width="1024"
   height="512"
   version="1.1"
   viewBox="0 0 270.94 135.47"
   id="svg19"
   sodipodi:docname="gitea.svg"
   inkscape:version="1.1.2 (0a00cf5339, 2022-02-04, custom)"
   xmlns:inkscape="http://www.inkscape.org/namespaces/inkscape"
   xmlns:sodipodi="http://sodipodi.sourceforge.net/DTD/sodipodi-0.dtd"
   xmlns="http://www.w3.org/2000/svg"
   xmlns:svg="http://www.w3.org/2000/svg"
   xmlns:rdf="http://www.w3.org/1999/02/22-rdf-syntax-ns#"
   xmlns:cc="http://creativecommons.org/ns#"
   xmlns:dc="http://purl.org/dc/elements/1.1/">
  <sodipodi:namedview
     id="namedview21"
     pagecolor="#505050"
     bordercolor="#ffffff"
     borderopacity="1"
     inkscape:pageshadow="0"
     inkscape:pageopacity="0"
     inkscape:pagecheckerboard="1"
     showgrid="false"
     inkscape:zoom="1.4199219"
     inkscape:cx="511.64787"
     inkscape:cy="256"
     inkscape:window-width="3832"
     inkscape:window-height="2042"
     inkscape:window-x="2560"
     inkscape:window-y="114"
     inkscape:window-maximized="1"
     inkscape:current-layer="svg19" />
  <title
     id="title2">Backwesen LOGO</title>
  <defs
     id="defs9">
    <clipPath
       id="l3d_a">
      <path
         d="m103.79 261.75c-2.0374-2.1051-2.3212-4.7132-1.1454-10.525 0.94227-4.6579 1.2511-7.8679 0.81457-8.4669-0.64451-0.88435-3.8042 3.6661-4.1496 5.976-0.14509 0.97044-0.67146 1.6971-1.2294 1.6971-0.13514 0-0.19795-0.81275-0.14087-1.8229 0.09625-1.7035 0.21779-2.0112 1.8547-4.6965 0.96341-1.5804 1.9365-3.32 2.1624-3.8658 0.34174-0.82561 0.54017-0.99222 1.1818-0.99222 0.70544 0 0.81276 0.12947 1.2613 1.5214 0.72231 2.2416 0.62859 5.9019-0.27577 10.771-0.96404 5.1902-0.75608 7.3505 0.91166 9.4705 1.1993 1.5245 0.11407 2.3383-1.2453 0.93379zm-6.7022-7.6248c-0.32201-0.1998-0.29882-0.3204 0.14676-0.76332 0.3713-0.36909 1.062-0.57994 2.3152-0.70672l1.786-0.1807v0.69297c0 0.75752-0.18507 0.83544-2.5281 1.0644-0.73558 0.0719-1.5095 0.0239-1.7198-0.10661zm7.423-1.2226c0-0.24126 0.70476-1.1155 1.5661-1.9429 1.8948-1.8198 2.2451-2.8433 2.0828-6.0854-0.12475-2.4924-0.73015-4.1933-2.1028-5.9081l-0.81107-1.0132 1.4744-1.539 1.0045 1.8191c1.6642 3.0138 3.3832 3.9984 6.114 3.5021 1.5283-0.27778 2.3992-0.0121 2.2638 0.69058-0.1268 0.65805-1.4513 0.90479-3.9521 0.73625l-2.2825-0.15382-0.11297 2.3222c-0.17089 3.5128-1.65 6.323-3.944 7.4933-1.2322 0.6286-1.3002 0.63273-1.3002 0.0789zm-36.878-5.9416c-1.1264-1.3858-6.2013-7.0153-14.4-15.974-2.7052-2.9559-3.8839-5.0106-4.2522-7.4122-0.6879-4.4864 1.7544-8.9461 5.9848-10.929 1.3017-0.61004 1.8688-0.7133 3.9171-0.7133 2.2298 0 2.5321 0.0677 4.3819 0.98196 1.3773 0.6807 2.5299 1.5276 3.7567 2.7605 0.97339 0.97819 1.7698 1.8758 1.7698 1.9947 0 0.53278 0.71847 0.12885 1.3065-0.73453 0.98097-1.4402 3.539-3.6371 5.1581-4.4299 2.6612-1.3031 6.041-1.355 8.4428-0.12964 1.5079 0.76928 3.4947 2.7241 4.4298 4.3584 0.44572 0.77903 0.95049 1.4165 1.1217 1.4166 0.66083 5.2e-4 3.5412 1.572 4.6535 2.539 1.1762 1.0225 3.3344 4.0745 3.9751 5.6214 0.43821 1.0579 0.84846 1.0948 0.54861 0.0493-0.35715-1.2453-1.4691-3.137-3.297-5.6091-0.93063-1.2586-1.6265-2.3539-1.5464-2.434 0.68806-0.68805 3.7042 2.9493 5.635 6.7955 1.2258 2.4418 1.6565 2.877 1.8058 1.8244 0.10441-0.73618-1.0705-3.3035-2.8912-6.3179-0.74319-1.2304-1.2745-2.3139-1.1806-2.4077 0.68493-0.68493 3.2031 2.6834 4.6186 6.1778 0.42213 1.0421 0.90164 1.8311 1.1128 1.8311 0.60247 0 0.38381-2.1932-0.41865-4.199-0.39171-0.97911-0.63905-1.9708-0.54965-2.2038 0.29192-0.76074 1.4016 0.63019 2.0246 2.5377 0.72325 2.2146 0.89475 2.3952 1.5782 1.6617 0.72439-0.77754 1.1024-0.4933 0.88499 0.66549-0.11885 0.63351-0.0669 1.0014 0.16117 1.1424 0.54008 0.33378-0.61598 2.4039-2.137 3.8266-2.4762 2.3162-7.4183 3.9166-9.4702 3.0667-0.45686-0.18923-0.83065-0.4439-0.83065-0.56593 0-0.26596 1.3389-0.62937 3.7829-1.0268 2.4416-0.39701 4.4064-1.3168 6.0029-2.8102 0.73428-0.68683 1.2913-1.2925 1.2378-1.346-0.0535-0.0535-1.0971 0.43073-2.3192 1.076-2.8127 1.4851-4.6214 2.0118-6.9089 2.0118-2.1995 0-3.6477-0.52695-3.6477-1.3273 0-0.40832-0.12572-0.52424-0.46303-0.42691-0.25467 0.0735-1.3948 0.2154-2.5336 0.31537l-2.0705 0.18178-7.0962 7.7063c-3.9029 4.2385-7.9124 8.6792-8.9099 9.8682-0.99757 1.1891-1.8733 2.1646-1.9461 2.1678-0.07276 3e-3 -0.71299-0.70851-1.4227-1.5817zm25.434-19.957c0.764 0.0813 1.3891 0.0805 1.3891-2e-3 0-0.36667-2.5196-1.2109-4.0367-1.3526-1.6172-0.15102-1.6794-0.13381-1.9914 0.55094-0.17713 0.38876-0.32205 0.799-0.32205 0.91167 0 0.11266 0.80369 0.10112 1.786-0.0256 0.98229-0.12677 2.4111-0.16398 3.1751-0.0827zm0.85712-2.3734c-0.65711-0.69945-1.8083-1.0983-3.5692-1.2367-0.90669-0.0712-1.0698-3e-3 -1.138 0.47441-0.07233 0.50655 0.1334 0.59379 2.249 0.95371 3.2681 0.55599 3.1677 0.56381 2.4581-0.19146zm0.53197-1.3331c0-0.41735-0.86607-1.7252-1.443-2.1789-0.69699-0.54825-3.534-1.7843-3.702-1.6129-0.05431 0.0554-0.03558 0.65711 0.04162 1.3371l0.14036 1.2364 1.2264 0.16867c0.67449 0.0928 1.7019 0.38997 2.283 0.66047 1.143 0.53195 1.4536 0.61512 1.4536 0.3892zm5.0934 15.316c-0.61391-0.24772-0.33643-0.5586 0.66147-0.74109 2.2693-0.41501 3.9498-1.8952 6.2793-5.5312 1.0527-1.6431 1.5868-2.2629 1.782-2.0678 0.67454 0.67454-0.97809 4.6557-2.6101 6.2877-1.6687 1.6687-4.6132 2.6574-6.1126 2.0523zm-3.8657-2.6373c-1.0066-0.5454-0.66716-0.80384 1.5119-1.151 3.2476-0.51734 5.7772-2.1893 8.3733-5.5345 2.0566-2.65 2.3226-2.4462 0.91487 0.70107-0.71861 1.6066-2.9397 4.0677-4.492 4.9774-0.92264 0.54071-4.2937 1.4595-5.2377 1.4276-0.17239-6e-3 -0.654-0.1951-1.0702-0.42062z"
         display="none"
         fill="#606060"
         stroke-width=".26459"
         id="path4" />
      <path
         class="powerclip"
         d="m1.0499 190.15h134.18v86.544h-134.18zm102.74 71.601c1.3594 1.4045 2.4446 0.5907 1.2453-0.93379-1.6677-2.1199-1.8757-4.2802-0.91166-9.4705 0.90436-4.869 0.99808-8.5293 0.27577-10.771-0.44852-1.3919-0.55584-1.5214-1.2613-1.5214-0.64159 0-0.84002 0.16661-1.1818 0.99222-0.22589 0.54571-1.199 2.2853-2.1624 3.8658-1.6369 2.6852-1.7584 2.993-1.8547 4.6965-0.05708 1.0102 0.0057 1.8229 0.14087 1.8229 0.5579 0 1.0843-0.72664 1.2294-1.6971 0.34535-2.3099 3.5051-6.8604 4.1496-5.976 0.43653 0.59898 0.1277 3.809-0.81457 8.4669-1.1758 5.8122-0.89194 8.4203 1.1454 10.525zm-6.7022-7.6248c0.21033 0.13051 0.98426 0.17851 1.7198 0.10661 2.343-0.22894 2.5281-0.30686 2.5281-1.0644v-0.69297l-1.786 0.1807c-1.2531 0.12678-1.9439 0.33763-2.3152 0.70672-0.44558 0.44292-0.46877 0.56352-0.14676 0.76332zm7.423-1.2226v-2e-5c0 0.55383 0.068 0.5497 1.3002-0.0789 2.294-1.1703 3.7731-3.9805 3.944-7.4933l0.11297-2.3222 2.2825 0.15382c2.5008 0.16854 3.8253-0.0782 3.9521-0.73625 0.13539-0.70268-0.73546-0.96836-2.2638-0.69058-2.7308 0.49633-4.4498-0.48834-6.114-3.5021l-1.0045-1.8191-0.73722 0.7695-0.73723 0.76949 0.81107 1.0132c1.3727 1.7148 1.9781 3.4158 2.1028 5.9081 0.16229 3.2421-0.18801 4.2655-2.0828 6.0854-0.86138 0.82732-1.5661 1.7016-1.5661 1.9429zm-36.878-5.9416v5e-5c0.70974 0.87317 1.35 1.5847 1.4227 1.5817s0.94849-0.97878 1.9461-2.1678c0.99758-1.1891 5.007-5.6298 8.9099-9.8682l7.0962-7.7063 2.0705-0.18178c1.1388-0.1 2.2789-0.24187 2.5336-0.31537 0.33731-0.0973 0.46303 0.0186 0.46303 0.42691 0 0.80033 1.4482 1.3273 3.6477 1.3273 2.2874 0 4.0962-0.52668 6.9089-2.0118 1.2221-0.64526 2.2657-1.1295 2.3192-1.076s-0.50356 0.65917-1.2378 1.346c-1.5966 1.4934-3.5613 2.4132-6.0029 2.8102-2.444 0.39741-3.7829 0.76082-3.7829 1.0268 0 0.12203 0.37379 0.3767 0.83065 0.56593 2.0518 0.84991 6.994-0.75049 9.4702-3.0667 1.521-1.4227 2.6771-3.4928 2.137-3.8266-0.22807-0.14099-0.28002-0.50885-0.16117-1.1424 0.21739-1.1588-0.1606-1.443-0.88499-0.66549-0.68341 0.73355-0.85491 0.55297-1.5782-1.6617-0.62294-1.9075-1.7326-3.2984-2.0246-2.5377-0.0894 0.23297 0.15794 1.2246 0.54965 2.2038 0.80246 2.0058 1.0211 4.199 0.41865 4.199-0.21119 0-0.6907-0.78901-1.1128-1.8311-1.4155-3.4944-3.9337-6.8627-4.6186-6.1778-0.09387 0.0939 0.4374 1.1774 1.1806 2.4077 1.8207 3.0144 2.9956 5.5817 2.8912 6.3179-0.14929 1.0526-0.58007 0.61737-1.8058-1.8244-1.9308-3.8462-4.9469-7.4836-5.635-6.7955-0.08013 0.0801 0.61574 1.1754 1.5464 2.434 1.8279 2.4721 2.9399 4.3638 3.297 5.6091 0.29985 1.0455-0.1104 1.0086-0.54861-0.0493-0.64075-1.5469-2.7989-4.5989-3.9751-5.6214-1.1123-0.96702-3.9927-2.5385-4.6535-2.539-0.17122-1.2e-4 -0.676-0.63761-1.1217-1.4166-0.93508-1.6343-2.9219-3.5891-4.4298-4.3584-2.4018-1.2253-5.7816-1.1734-8.4428 0.12964-1.6192 0.79284-4.1772 2.9897-5.1581 4.4299-0.58806 0.86338-1.3065 1.2673-1.3065 0.73453 0-0.11888-0.79641-1.0165-1.7698-1.9947-1.2268-1.2328-2.3794-2.0798-3.7567-2.7605-1.8499-0.91426-2.1521-0.98196-4.3819-0.98196-2.0483 0-2.6154 0.10326-3.9171 0.7133-4.2305 1.9826-6.6727 6.4423-5.9848 10.929 0.36824 2.4016 1.547 4.4564 4.2522 7.4122 8.1988 8.9586 13.274 14.588 14.4 15.974zm25.434-19.957c0.764 0.0813 1.3891 0.0805 1.3891-2e-3 0-0.36667-2.5196-1.2109-4.0367-1.3526-1.6172-0.15102-1.6794-0.13381-1.9914 0.55094-0.17713 0.38876-0.32205 0.799-0.32205 0.91167 0 0.11266 0.80369 0.10112 1.786-0.0256 0.98229-0.12677 2.4111-0.16398 3.1751-0.0827zm0.85712-2.3734c-0.65711-0.69945-1.8083-1.0983-3.5692-1.2367-0.90669-0.0712-1.0698-3e-3 -1.138 0.47441-0.07233 0.50655 0.1334 0.59379 2.249 0.95371 3.2681 0.55599 3.1677 0.56381 2.4581-0.19146zm0.53197-1.3331c0-0.41735-0.86607-1.7252-1.443-2.1789-0.69699-0.54825-3.534-1.7843-3.702-1.6129-0.05431 0.0554-0.03558 0.65711 0.04162 1.3371l0.14036 1.2364 1.2264 0.16867c0.67449 0.0928 1.7019 0.38997 2.283 0.66047 1.143 0.53195 1.4536 0.61512 1.4536 0.3892zm5.0934 15.316c1.4994 0.60502 4.4439-0.38362 6.1126-2.0523 1.632-1.632 3.2847-5.6132 2.6101-6.2877-0.19511-0.19511-0.72924 0.42469-1.782 2.0678-2.3296 3.636-4.01 5.1162-6.2793 5.5312-0.9979 0.18249-1.2754 0.49337-0.66147 0.74109zm-3.8657-2.6373c0.41624 0.22552 0.89785 0.41462 1.0702 0.42062 0.94408 0.0319 4.3151-0.8869 5.2377-1.4276 1.5523-0.90971 3.7734-3.3708 4.492-4.9774 1.4077-3.1472 1.1417-3.3511-0.91487-0.70107-2.596 3.3452-5.1256 5.0172-8.3733 5.5345-2.1791 0.34713-2.5185 0.60557-1.5119 1.151z"
         fill="#606060"
         stroke-width=".26459"
         id="path6" />
    </clipPath>
  </defs>
  <metadata
     id="metadata11">
    <rdf:RDF>
      <cc:Work
         rdf:about="">
        <dc:title>Backwesen LOGO</dc:title>
      </cc:Work>
    </rdf:RDF>
  </metadata>
  <g
     transform="matrix(1.7193 0 0 1.7193 18.317 -333.59)"
     clip-path="url(#l3d_a)"
     fill="#e64f2d"
     id="g15"
     style="stroke:#e64f2d;stroke-opacity:1">
    <path
       d="m27.71 195.15c-9.5466-0.0272-22.339 6.798-21.632 23.904 1.1055 26.729 25.457 29.208 35.192 29.423 1.068 5.0136 12.522 22.306 21.002 23.217h37.153c22.278-1.6678 38.961-75.757 26.593-76.038-46.782 2.4769-49.995 2.1384-88.6 0-2.4951-0.0266-5.9723-0.49474-9.7079-0.5054zm2.4913 9.4589c1.3514 13.693 3.5558 21.704 8.0182 33.943-11.383-1.5047-21.07-5.2244-22.852-19.11-0.95096-7.4112 2.3904-15.168 14.833-14.834z"
       fill="#e64f2d"
       stroke="#cf7816"
       id="path13"
       style="stroke:#e64f2d;stroke-opacity:1" />
  </g>
  <path
     d="m0 0"
     id="path17" />
</svg>
