<svg width="1024" height="512" version="1.1" viewBox="0 0 1024 512" xmlns="http://www.w3.org/2000/svg">
 <path d="m512 0.87924c-144.43 0-261.57 117.12-261.57 261.57 0 115.57 74.94 213.62 178.89 248.21 13.057 2.4195 17.285-5.6892 17.285-12.577v-48.696c-72.76 15.825-87.909-30.865-87.909-30.865-11.901-30.233-29.056-38.276-29.056-38.276-23.738-16.239 1.8092-15.89 1.8092-15.89 26.266 1.831 40.086 26.964 40.086 26.964 23.323 39.977 61.186 28.424 76.117 21.732 2.3323-16.893 9.1114-28.446 16.61-34.963-58.09-6.6482-119.17-29.078-119.17-129.28 0-28.577 10.223-51.9 26.942-70.21-2.7029-6.6046-11.662-33.219 2.5503-69.229 0 0 21.972-7.0188 71.954 26.811 20.86-5.7981 43.224-8.6972 65.458-8.8062 22.233 0.109 44.62 3.0081 65.523 8.8062 49.938-33.83 71.866-26.811 71.866-26.811 14.234 36.031 5.275 62.646 2.5721 69.229 16.784 18.31 26.92 41.655 26.92 70.21 0 100.46-61.186 122.59-119.43 129.06 9.3729 8.1087 17.939 24.021 17.939 48.434v71.779c0 6.9534 4.1851 15.128 17.46 12.555 103.87-34.636 178.72-132.66 178.72-248.19 0-144.45-117.12-261.57-261.57-261.57z" fill="#e64f2d" stroke-width="21.798"/>
</svg>
