<svg class="svg-inline--fa fa-mastodon fa-w-14" width="1024" height="512" aria-hidden="true" data-icon="mastodon" data-prefix="fab" focusable="false" role="img" version="1.1" viewBox="0 0 1024 512" xmlns="http://www.w3.org/2000/svg">
 <defs>
  <clipPath id="l3d_a">
   <path d="m2592.3 339.81c-0.4814-0.77898 1.3469-1.6308 4.0629-1.893 3.2598-0.31467 5.1089-1.3775 5.4403-3.127 0.401-2.1168-0.5699-2.6503-4.8236-2.6503-9.4103 0-13.16-9.843-6.6333-17.414 3.0272-3.5116 4.1259-3.8375 9.8439-2.9198l6.4363 1.033v10.828c0 12.827-2.4481 17.559-9.0831 17.559-2.4024 0-4.762-0.63735-5.2434-1.4163zm9.1711-12.98c4.628-7.0632-2.5081-16.71-8.1716-11.046-2.7949 2.7948-2.2515 11.409 0.8329 13.206 3.8633 2.2502 4.5895 2.0365 7.3387-2.1593zm-50.879 3.795c-6.4918-6.4918-1.9977-19.688 6.7051-19.688 4.3274 0 9.9537 6.4202 9.9537 11.358s-5.6263 11.358-9.9537 11.358c-2.0219 0-5.0392-1.363-6.7051-3.0289zm10.519-2.1727c2.553-3.0762 1.3573-11.594-1.9059-13.576-3.9125-2.3762-9.2045 4.0995-7.829 9.5802 1.5254 6.0775 6.3602 8.0621 9.7349 3.9959zm-24.149 2.1727c0-0.83292 0.6815-1.5144 1.5144-1.5144 0.833 0 1.5145 0.68151 1.5145 1.5144 0 0.83295-0.6815 1.5144-1.5145 1.5144-0.8329 0-1.5144-0.6815-1.5144-1.5144zm36.346-8.3294c0-8.6943 0.3393-9.8438 2.905-9.8438 1.5978 0 3.983-0.41365 5.3006-0.91924 1.3175-0.50558 2.3955-0.16484 2.3955 0.75721 0 0.92207-0.9983 1.6765-2.2184 1.6765-3.1761 0-5.3538 4.8876-5.3538 12.016 0 3.3865-0.6815 6.1573-1.5144 6.1573-0.8543 0-1.5145-4.2909-1.5145-9.8438zm-182.64-25.586c-0.4457-1.1615 9.6277-22.799 22.385-48.083l23.196-45.972 15.523-0.43158c10.027-0.2788 15.523 0.12674 15.523 1.1456 0 3.8159-45.62 92.418-48.333 93.869-4.6256 2.4755-27.304 2.0522-28.294-0.52815zm37.701-0.41706c-0.6217-1.6204 7.3-19.03 22.05-48.462l23.021-45.933h73.477l7.1366 7.2456c3.9252 3.9851 7.1367 8.0793 7.1367 9.0983 0 2.705-37.915 78.106-39.936 79.421-2.3847 1.5509-25.491 1.3981-27.99-0.18515-1.6031-1.0158 1.1062-7.7945 12.472-31.204 7.9857-16.448 14.149-30.506 13.696-31.239-0.4532-0.7333-6.8116-1.3333-14.13-1.3333-10.769 0-13.753 0.50529-15.651 2.6503-1.2901 1.4576-8.8513 15.68-16.802 31.606-7.9513 15.926-15.576 29.385-16.943 29.91-1.3676 0.52479-7.9042 0.95416-14.526 0.95416-9.8486 0-12.216-0.46014-13.01-2.5288zm123.73 1.4706c-4.0519-1.4612-15.144-13.125-15.144-15.924 0-1.497 12.269-27.252 27.264-57.233l27.264-54.511h15.14c12.546 0 15.14 0.39492 15.14 2.3053 0 1.2679-2.7483 7.7712-6.1072 14.452-3.3589 6.6806-5.7039 12.799-5.2111 13.596 0.4928 0.79737 6.9892 1.4498 14.436 1.4498 9.8522 0 13.526 0.51565 13.485 1.893-0.03 1.0412-3.2675 8.0265-7.1936 15.523l-7.1384 13.63-31.803 1.5144-7.1384 13.63c-3.9261 7.4964-7.1632 14.482-7.1936 15.523-0.042 1.4517 6.8408 1.893 29.524 1.893 23.861 0 29.735 0.40711 30.387 2.1059 1.0865 2.8315-12.202 29.06-15.332 30.261-2.9972 1.1501-67.164 1.052-70.379-0.10752zm-106.01-114.1c0-0.86613 1.3768-4.2736 3.0596-7.5722l3.0597-5.9974h15.114c16.974 0 17.872 0.75831 12.101 10.222l-3.001 4.9219h-15.167c-9.4888 0-15.167-0.58954-15.167-1.5748zm-507.34-4.4902c0-0.83691 13.972-29.46 31.05-63.606l31.05-62.085h14.384c8.7876 0 14.384 0.60227 14.384 1.548 0 0.85143-2.7706 7.0586-6.1569 13.794-3.3864 6.7351-5.793 13.194-5.3481 14.354 0.6305 1.6431 4.9228 2.108 19.465 2.108h18.656l7.1366 7.2456c3.9252 3.9851 7.1038 8.2444 7.0637 9.4652-0.04 1.2208-8.7292 19.257-19.309 40.081l-19.236 37.861-12.746 0.44393c-7.0104 0.24416-13.662 0.0925-14.782-0.3371-1.4797-0.56782 1.9643-8.7929 12.616-30.129 9.34-18.709 14.296-30.273 13.672-31.9-0.8422-2.1948-3.0479-2.491-15.771-2.1179l-14.792 0.43376-15.35 30.289c-8.4426 16.659-16.136 31.141-17.097 32.182-2.1545 2.3347-28.887 2.6784-28.887 0.37141zm118.09-5.4754c-4.1438-3.8761-7.5014-8.1468-7.4612-9.4904 0.04-1.3437 8.7292-19.48 19.309-40.304l19.236-37.861 47.752-0.83437 7.3269 6.8535c4.0299 3.7694 8.0572 6.8535 8.9495 6.8535 0.8924 0 3.2185-2.8964 5.169-6.4364l3.5465-6.4364 14.74-0.43345c11.258-0.33105 14.723 0.0267 14.666 1.5144-0.041 1.0713-10.434 22.393-23.095 47.381l-23.02 45.433-79.584 0.80765zm69.058-24.177c4.1035-1.1019 18.716-30.111 16.356-32.471-0.9679-0.96786-8.8108-1.4089-20.379-1.1461l-18.806 0.42726-7.1384 13.63c-7.4428 14.211-8.5308 18.161-5.3557 19.442 2.6195 1.057 31.468 1.1532 35.324 0.11782zm41.469 24.152c-4.129-3.8622-7.4744-8.1216-7.4343-9.4652 0.04-1.3437 8.7292-19.48 19.309-40.304l19.236-37.861 42.026-0.40256c48.818-0.46762 45.591-2.0168 35.537 17.061l-6.3844 12.115-56.034 1.5144-7.1384 13.63c-7.7152 14.731-8.5539 18.106-4.8532 19.526 1.3175 0.50558 12.903 0.91924 25.745 0.91924 14.895 0 23.35 0.56054 23.35 1.548 0 2.4395-12.307 26.344-14.2 27.582-0.9361 0.61196-15.191 1.1231-31.677 1.1358l-29.975 0.0232zm78.342 5.9416c-0.3965-0.65506 13.348-29.132 30.544-63.283l31.265-62.092 14.766-0.43344c8.1212-0.2384 14.766-0.11234 14.766 0.28012s-6.4868 14.171-14.415 30.618c-8.0017 16.6-13.838 30.482-13.118 31.202 0.7135 0.71353 7.9602 1.1009 16.104 0.86091l14.806-0.4364 16.582-31.046h13.671c12.721 0 13.618 0.20142 12.913 2.899-0.4169 1.5944-7.351 15.565-15.409 31.046l-14.651 28.147h-13.453c-7.399 0-13.867 0.67048-14.374 1.49s4.9053 7.5336 12.026 14.92c7.1208 7.3867 12.947 14.213 12.947 15.169 0 1.1755-4.2822 1.7384-13.226 1.7384h-13.225l-15.561-15.508c-12.449-12.406-16.038-15.206-17.949-14.001-1.3137 0.82866-5.5677 7.6368-9.4534 15.129l-7.0648 13.622-13.885 0.43381c-7.6368 0.23859-14.209-0.10222-14.606-0.75721z" display="none" fill="#5d605d" stroke-width="1.5144"/>
   <path class="powerclip" d="m1859.8-51.372h845.49v513.93h-845.49zm732.53 391.19c0.4814 0.77899 2.841 1.4163 5.2434 1.4163 6.635 0 9.0831-4.7327 9.0831-17.559v-10.828l-6.4363-1.033c-5.718-0.91771-6.8167-0.5918-9.8439 2.9198-6.5264 7.5708-2.777 17.414 6.6333 17.414 4.2537 0 5.2246 0.53344 4.8236 2.6503-0.3314 1.7495-2.1805 2.8123-5.4403 3.127-2.716 0.2622-4.5443 1.1141-4.0629 1.893zm9.1711-12.98c4.628-7.0632-2.5081-16.71-8.1716-11.046-2.7949 2.7948-2.2515 11.409 0.8329 13.206 3.8633 2.2502 4.5895 2.0365 7.3387-2.1593zm-50.879 3.795c1.6659 1.6659 4.6832 3.0289 6.7051 3.0289 4.3274 0 9.9537-6.4202 9.9537-11.358s-5.6263-11.358-9.9537-11.358c-8.7028 0-13.197 13.196-6.7051 19.688zm10.519-2.1727c2.553-3.0762 1.3573-11.594-1.9059-13.576-3.9125-2.3762-9.2045 4.0995-7.829 9.5802 1.5254 6.0775 6.3602 8.0621 9.7349 3.9959zm-24.149 2.1727c0 0.83294 0.6815 1.5144 1.5144 1.5144 0.833 0 1.5145-0.68149 1.5145-1.5144 0-0.83292-0.6815-1.5144-1.5145-1.5144-0.8329 0-1.5144 0.68151-1.5144 1.5144zm36.346-8.3294c0 5.5529 0.6602 9.8438 1.5145 9.8438 0.8329 0 1.5144-2.7708 1.5144-6.1573 0-7.1284 2.1777-12.016 5.3538-12.016 1.2201 0 2.2184-0.7544 2.2184-1.6765 0-0.92205-1.078-1.2628-2.3955-0.75721-1.3176 0.50559-3.7028 0.91924-5.3006 0.91924-2.5657 0-2.905 1.1495-2.905 9.8438zm-182.64-25.586c0.9902 2.5804 23.669 3.0037 28.294 0.52815 2.7122-1.4515 48.333-90.053 48.333-93.869 0-1.0188-5.496-1.4244-15.523-1.1456l-15.523 0.43158-23.196 45.972c-12.758 25.284-22.831 46.922-22.385 48.083zm37.701-0.41706c0.7939 2.0687 3.161 2.5288 13.01 2.5288 6.6215 0 13.158-0.42937 14.526-0.95416 1.3675-0.52479 8.9921-13.984 16.943-29.91 7.9512-15.926 15.512-30.149 16.802-31.606 1.8984-2.145 4.8824-2.6503 15.651-2.6503 7.3182 0 13.677 0.59998 14.13 1.3333 0.4532 0.73328-5.7098 14.791-13.696 31.239-11.365 23.409-14.075 30.188-12.472 31.204 2.4985 1.5832 25.605 1.7361 27.99 0.18515 2.0212-1.3145 39.936-76.716 39.936-79.421 0-1.019-3.2115-5.1132-7.1367-9.0983l-7.1366-7.2456h-73.477l-23.021 45.933c-14.75 29.431-22.672 46.842-22.05 48.462zm123.73 1.4706v6e-5c3.2158 1.1595 67.382 1.2576 70.379 0.10752 3.1297-1.201 16.419-27.429 15.332-30.261-0.6519-1.6988-6.5263-2.1059-30.387-2.1059-22.683 0-29.566-0.44134-29.524-1.893 0.03-1.0412 3.2675-8.0265 7.1936-15.523l7.1384-13.63 31.803-1.5144 7.1384-13.63c3.9261-7.4965 7.1636-14.482 7.1936-15.523 0.04-1.3774-3.6332-1.893-13.485-1.893-7.4473 0-13.944-0.6524-14.436-1.4498-0.4928-0.79738 1.8522-6.9157 5.2111-13.596 3.3589-6.6806 6.1072-13.184 6.1072-14.452 0-1.9104-2.5938-2.3053-15.14-2.3053h-15.14l-27.264 54.511c-14.995 29.981-27.264 55.736-27.264 57.233 0 2.7994 11.092 14.463 15.144 15.924zm-106.01-114.1c0 0.98523 5.6778 1.5748 15.167 1.5748h15.167l3.001-4.9219c5.7703-9.4641 4.8727-10.222-12.101-10.222h-15.114l-3.0597 5.9974c-1.6828 3.2986-3.0596 6.706-3.0596 7.5722zm-507.34-4.4902c0 2.307 26.733 1.9632 28.887-0.37141 0.9608-1.0412 8.6545-15.523 17.097-32.182l15.35-30.289 14.792-0.43376c12.723-0.37311 14.929-0.0769 15.771 2.1179 0.6242 1.6267-4.332 13.191-13.672 31.9-10.652 21.336-14.096 29.561-12.616 30.129 1.1194 0.4296 7.7711 0.58126 14.782 0.3371l12.746-0.44393 19.236-37.861c10.58-20.823 19.269-38.86 19.309-40.081s-3.1385-5.4802-7.0637-9.4652l-7.1366-7.2456h-18.656c-14.542 0-18.835-0.46482-19.465-2.108-0.4449-1.1594 1.9617-7.6184 5.3481-14.354 3.3863-6.7351 6.1569-12.942 6.1569-13.794 0-0.94578-5.5959-1.548-14.384-1.548h-14.384l-31.05 62.085c-17.077 34.147-31.05 62.769-31.05 63.606zm118.09-5.4754 7.5343 7.0474 79.584-0.80765 23.02-45.433c12.661-24.988 23.054-46.31 23.095-47.381 0.057-1.4877-3.4076-1.8455-14.666-1.5144l-14.74 0.43345-3.5465 6.4364c-1.9505 3.54-4.2766 6.4364-5.169 6.4364-0.8923 0-4.9196-3.0841-8.9495-6.8535l-7.3269-6.8535-47.752 0.83437-19.236 37.861c-10.58 20.823-19.269 38.96-19.309 40.304s3.3174 5.6144 7.4612 9.4904zm69.058-24.177c4.1035-1.1019 18.716-30.111 16.356-32.471-0.9679-0.96786-8.8108-1.4089-20.379-1.1461l-18.806 0.42726-7.1384 13.63c-7.4428 14.211-8.5308 18.161-5.3557 19.442 2.6195 1.057 31.468 1.1532 35.324 0.11782zm41.469 24.152 7.5073 7.0222 29.975-0.0232c16.486-0.0127 30.741-0.52386 31.677-1.1358 1.893-1.2376 14.2-25.142 14.2-27.582 0-0.98751-8.4549-1.548-23.35-1.548-12.842 0-24.428-0.41366-25.745-0.91924-3.7007-1.4201-2.862-4.7942 4.8532-19.526l7.1384-13.63 56.034-1.5144 6.3844-12.115c10.053-19.078 13.28-17.529-35.537-17.061l-42.026 0.40256-19.236 37.861c-10.58 20.823-19.269 38.96-19.309 40.304-0.04 1.3437 3.3053 5.603 7.4343 9.4652zm78.342 5.9416c0.3964 0.65499 6.969 0.9958 14.606 0.75721l13.885-0.43381 7.0648-13.622c3.8857-7.4924 8.1397-14.3 9.4534-15.129 1.9108-1.2053 5.5004 1.5947 17.949 14.001l15.561 15.508h13.225c8.9433 0 13.226-0.56287 13.226-1.7384 0-0.95612-5.8262-7.7821-12.947-15.169-7.1208-7.3867-12.533-14.101-12.026-14.92s6.9745-1.49 14.374-1.49h13.453l14.651-28.147c8.0579-15.481 14.992-29.452 15.409-31.046 0.7054-2.6975-0.1917-2.899-12.913-2.899h-13.671l-16.582 31.046-14.806 0.4364c-8.1436 0.24003-15.39-0.14738-16.104-0.86091-0.7202-0.72014 5.116-14.602 13.118-31.202 7.9284-16.448 14.415-30.226 14.415-30.618s-6.6446-0.51852-14.766-0.28012l-14.766 0.43344-31.265 62.092c-17.196 34.151-30.94 62.628-30.544 63.283z" fill="#5d605d" stroke-width="1.5144"/>
  </clipPath>
 </defs>
 <path transform="translate(-1770.5 50.409)" d="m2551 455.48c-6.8362-4.7883-2.6376-16.479 8.9267-24.857 13.826-10.015 21.241-1.7474 13.246 14.768-5.1613 10.662-14.978 15.128-22.173 10.088zm-70.758-19.836c-6.531-1.8026-12.873-10.619-12.873-17.897 0-6.541 5.0445-7.6369 21.356-4.6392 8.1149 1.4913 16.693 2.1863 20.304 1.6449 11.08-1.6616 24.014-9.0545 37.304-21.322 14.256-13.16 17.593-15.145 23.126-13.756 5.8992 1.4806 6.366 6.7187 1.513 16.977-8.7013 18.393-22.341 28.129-48.815 34.845-14.2 3.6021-36.056 5.7646-41.915 4.1474zm-20.445-43.944c-25.068-1.7915-40.653-6.0153-48.212-13.066-7.4767-6.974-10.023-14.387-10.096-29.394-0.057-11.659-0.5815-14.638-3.201-18.173-5.0678-6.8402-12.037-10.643-24.485-13.359-6.4279-1.4027-14.603-3.5639-18.167-4.8026-9.3544-3.2514-20.787-12.903-26.124-22.055-4.1278-7.0784-4.5775-9.0472-4.1839-18.319l0.441-10.388-13.63-6.1552c-23.073-10.42-33.857-8.7149-54.237 8.5741-16.484 13.984-21.054 16.405-32.515 17.225-8.8378 0.63235-14.702-0.37746-42.054-7.2415-26.04-6.5349-33.059-7.7852-38.837-6.9187-9.6484 1.4469-16.237 6.2923-21.891 16.1-11.157 19.353-13.229 21.706-23.961 27.209-9.3267 4.7826-11.535 5.2979-22.605 5.2741-14.781-0.032-23.02-3.4546-49.612-20.609-26.277-16.951-26.946-17.114-70.938-17.271-34.301-0.12249-37.828-0.38745-46.688-3.5072-15.918-5.6049-31.255-17.006-38.001-28.25-9.6296-16.05-7.3214-49.594 5.0074-72.77 8.8526-16.641 18.024-28.425 36.021-46.279 18.445-18.299 18.955-20.043 11.094-37.898-7.2399-16.444-8.147-25.163-4.0194-38.635 4.0618-13.258 13.237-27.242 26.704-40.7 13.715-13.706 27.241-22.621 40.746-26.857 9.5197-2.9858 13.799-3.3605 36.528-3.1993 36.506 0.25897 48.156 3.3905 68.11 18.308 28.202 21.083 48.113 19.936 76.163-4.3862 17.48-15.157 38.328-24.19 72.899-31.584 13.077-2.7971 18.993-3.2511 34.832-2.6732 19.002 0.69338 19.22 0.74341 53.501 12.267 53.859 18.104 73.433 27.975 92.179 46.486 12.836 12.675 19.278 24.14 23.486 41.799 2.9514 12.387 3.3437 40.644 0.7654 55.125-3.0218 16.972-3.3618 15.843 4.929 16.37 16.539 1.0522 39.29-4.8048 51.622-13.289 9.7464-6.7057 14.183-14.227 18.376-31.152 7.6126-30.732 17.663-39.813 42.315-38.231 17.424 1.1182 26.974 8.6232 26.965 21.19-0.01 11.002-3.3123 17.782-14.35 29.444-5.7094 6.0321-10.381 11.669-10.381 12.526 0 0.8572 1.8434 2.7669 4.0964 4.2437 3.0643 2.0086 7.1661 2.6852 16.28 2.6852 11.913 0 12.429-0.15671 23.214-7.0548 6.0669-3.8801 14.481-7.8824 18.697-8.8939 18.978-4.5529 36.15 5.0386 36.15 20.192 0 4.1122-1.8532 7.6592-8.3205 15.925-15.187 19.41-14.622 22.255 7.1157 35.797 18.255 11.373 24.378 17.249 30.123 28.912 9.3019 18.883 10.854 32.108 5.9956 51.102-6.2212 24.325-22.234 51.736-42.638 72.99-24.339 25.352-37.816 30.793-86.676 34.992-7.8019 0.67044-12.648 2.1521-19.688 6.0198-39.504 21.703-52.448 24.961-88.846 22.359zm-425.21-27.257c-6.5787-2.6469-8.5176-20.49-3.1783-29.248 4.2265-6.933 7.1479-9.0068 12.771-9.0652 10.578-0.10981 17.42 15.28 12.271 27.603-3.5758 8.558-14.235 13.78-21.863 10.711zm631.1-285.64c-5.1169-4.0322-7.5024-9.4369-7.4804-16.948 0.028-9.422 2.2824-14.058 9.0864-18.683 7.02-4.7717 18.107-4.0502 23.7 1.5421 8.5991 8.5991 4.9168 26.086-6.8906 32.722-6.4579 3.6296-14.761 4.2457-18.415 1.3665zm-782.43-29.876c-1.8255-0.73534-4.4674-3.0895-5.8709-5.2314-2.239-3.4171-2.3291-5.0511-0.7356-13.333 5.0275-26.129 20.761-43.39 39.632-43.48 13.13-0.06249 18.454 8.5231 12.466 20.103-1.3771 2.663-5.6364 9.0287-9.4652 14.146s-8.8401 12.481-11.136 16.364c-2.953 4.9933-6.0557 7.9132-10.601 9.9765-7.0765 3.2122-9.3505 3.4437-14.289 1.4546zm561.06-36.74c-14.328-14.315-20.903-19.727-28.637-23.575-11.83-5.8851-15.977-11.713-14.383-20.209 2.3865-12.721 18.865-18.055 39.32-12.728 21.497 5.5993 36.928 24.167 38.515 46.346 0.951 13.29-0.3503 19.853-4.9127 24.776-6.6303 7.1542-9.5405 5.7323-29.902-14.61zm45.424-15.854c-1.2968-1.4676-2.8405-5.735-3.4305-9.4833s-2.368-9.7979-3.951-13.444c-3.3369-7.6852-3.5955-10.979-1.0609-13.513 4.4427-4.4427 14.172 0.16834 18.658 8.8422 4.24 8.1994 1.5957 24.058-4.7011 28.193-2.7459 1.8034-3.4632 1.726-5.5143-0.59522zm-600.77-22.491c-4.8796-4.1058-5.9403-9.0297-3.0918-14.352 1.1467-2.1428 3.1859-2.9293 7.5944-2.9293 5.1742 0 6.4512 0.69626 9.0277 4.9219 7.927 13.001-1.9956 22.065-13.53 12.359z" clip-path="url(#l3d_a)" fill="#e64f2d" stop-color="#000000" stroke-width="1.1426" style="-inkscape-stroke:none;font-variation-settings:normal"/>
</svg>
