<svg class="svg-inline--fa fa-mastodon fa-w-14" width="1024" height="512" aria-hidden="true" data-icon="mastodon" data-prefix="fab" focusable="false" role="img" version="1.1" viewBox="0 0 1024 512" xmlns="http://www.w3.org/2000/svg">
 <path d="m750.78 168.1c0-111.06-72.798-143.63-72.798-143.63-71.438-32.794-261.16-32.451-331.91 0 0 0-72.809 32.565-72.809 143.63 0 132.2-7.5414 296.4 120.7 330.34 46.288 12.226 86.064 14.854 118.07 13.026 58.057-3.1994 90.634-20.682 90.634-20.682l-1.9425-42.163s-41.489 13.026-88.12 11.541c-46.174-1.5997-94.839-5.0276-102.41-61.703a117.17 117.17 0 0 1-1.0284-15.883c97.844 23.881 181.28 10.398 204.25 7.6557 64.125-7.6557 119.98-47.191 127.1-83.298 11.198-56.903 10.284-138.83 10.284-138.83zm-85.835 143.06h-53.281v-130.49c0-56.789-73.129-58.96-73.129 7.8842v71.415h-52.938v-71.426c0-66.844-73.129-64.673-73.129-7.8842v130.49h-53.396c0-139.52-5.9417-169 21.036-199.96 29.594-33.022 91.205-35.193 118.64 6.9701l13.255 22.281 13.255-22.281c27.549-42.392 89.263-39.764 118.64-6.9701 27.092 31.194 21.025 60.56 21.025 199.96z" fill="#e64f2d" stroke-width="1.1426"/>
</svg>
