<svg width="1024" height="512" clip-rule="evenodd" fill-rule="evenodd" stroke-linejoin="round" stroke-miterlimit="2" version="1.1" viewBox="0 0 1024 512" xml:space="preserve" xmlns="http://www.w3.org/2000/svg" xmlns:serif="http://www.serif.com/">
    <g transform="matrix(.41843 0 0 .41843 261.87 -121.43)" fill="#e64f2d">
        <g id="l3d_b" transform="matrix(1220,0,0,1220,74.748,1337.5)" fill="#e64f2d" serif:id="Podcast Logo">
            <path d="m0.555-0.192c0 0.032-3e-3 0.069-0.01 0.11-0.011 0.08-0.022 0.138-0.03 0.175-9e-3 0.033-0.037 0.05-0.085 0.05-0.049 0-0.077-0.017-0.085-0.05-9e-3 -0.037-0.019-0.095-0.031-0.175-6e-3 -0.041-9e-3 -0.078-9e-3 -0.11 0-0.062 0.041-0.094 0.125-0.094 0.083 0 0.125 0.032 0.125 0.094zm0.302-0.237c0 0.09-0.025 0.17-0.075 0.243-0.049 0.072-0.115 0.124-0.195 0.156-3e-3 1e-3 -6e-3 0-8e-3 -2e-3 -3e-3 -2e-3 -4e-3 -5e-3 -4e-3 -8e-3 3e-3 -0.018 5e-3 -0.03 6e-3 -0.037 1e-3 -0.012 3e-3 -0.021 3e-3 -0.026 1e-3 -4e-3 2e-3 -6e-3 5e-3 -7e-3 0.059-0.03 0.107-0.074 0.143-0.131 0.036-0.056 0.054-0.119 0.054-0.188 0-0.067-0.017-0.128-0.051-0.184s-0.08-0.1-0.138-0.131-0.121-0.045-0.188-0.041c-0.046 2e-3 -0.09 0.014-0.132 0.034s-0.078 0.046-0.108 0.078-0.054 0.07-0.072 0.113c-0.017 0.043-0.026 0.088-0.026 0.134 1e-3 0.069 0.019 0.131 0.056 0.188 0.036 0.057 0.084 0.1 0.143 0.129 3e-3 1e-3 4e-3 4e-3 5e-3 7e-3 1e-3 8e-3 2e-3 0.016 3e-3 0.025 1e-3 3e-3 2e-3 9e-3 3e-3 0.018 2e-3 9e-3 3e-3 0.015 4e-3 0.02 0 3e-3 -1e-3 6e-3 -4e-3 8e-3 -3e-3 3e-3 -6e-3 3e-3 -9e-3 1e-3 -0.055-0.021-0.103-0.053-0.145-0.094-0.042-0.042-0.075-0.091-0.097-0.147-0.023-0.057-0.032-0.117-0.029-0.179 2e-3 -0.053 0.014-0.104 0.036-0.152 0.022-0.049 0.051-0.091 0.087-0.127 0.035-0.036 0.077-0.065 0.125-0.088s0.099-0.036 0.152-0.039c0.061-4e-3 0.12 5e-3 0.176 0.026 0.057 0.021 0.105 0.051 0.146 0.089 0.041 0.039 0.073 0.086 0.098 0.14 0.024 0.055 0.036 0.112 0.036 0.172zm-0.339-0.106c0.024 0.025 0.037 0.054 0.037 0.089 0 0.034-0.012 0.064-0.037 0.088-0.024 0.024-0.054 0.037-0.088 0.037-0.035 0-0.064-0.013-0.089-0.037-0.024-0.024-0.036-0.054-0.036-0.088 0-0.035 0.012-0.065 0.036-0.089 0.025-0.024 0.054-0.036 0.089-0.036 0.034 0 0.064 0.012 0.088 0.036zm0.197 0.106c0 0.046-0.01 0.088-0.029 0.128-0.02 0.04-0.048 0.073-0.082 0.099-3e-3 2e-3 -6e-3 3e-3 -9e-3 1e-3 -3e-3 -1e-3 -5e-3 -4e-3 -6e-3 -8e-3 -2e-3 -0.019-7e-3 -0.036-0.016-0.051-3e-3 -4e-3 -2e-3 -7e-3 2e-3 -0.011 0.021-0.02 0.038-0.044 0.051-0.071 0.012-0.027 0.018-0.056 0.018-0.087 0-0.041-0.011-0.079-0.033-0.113-0.021-0.035-0.051-0.061-0.088-0.079-0.036-0.018-0.076-0.025-0.118-0.021-0.049 6e-3 -0.092 0.027-0.128 0.063-0.035 0.037-0.056 0.08-0.06 0.129-4e-3 0.034 0 0.067 0.013 0.098 0.012 0.032 0.03 0.058 0.055 0.081 3e-3 4e-3 4e-3 7e-3 1e-3 0.011-9e-3 0.015-0.014 0.033-0.016 0.052-1e-3 3e-3 -3e-3 6e-3 -5e-3 7e-3 -3e-3 2e-3 -6e-3 1e-3 -9e-3 -1e-3 -0.036-0.028-0.063-0.062-0.083-0.102-0.02-0.041-0.03-0.084-0.029-0.131 1e-3 -0.048 0.014-0.094 0.038-0.136 0.025-0.042 0.058-0.076 0.099-0.101 0.042-0.026 0.086-0.039 0.135-0.042 0.053-2e-3 0.103 9e-3 0.149 0.034s0.083 0.06 0.11 0.104c0.027 0.045 0.04 0.094 0.04 0.147z" fill="#e64f2d" fill-rule="nonzero"/>
        </g>
    </g>
</svg>
