<svg width="1024" height="512" version="1.1" viewBox="0 0 1024 512" xmlns="http://www.w3.org/2000/svg">
 <path d="m817.62 250.37c0-37.158-30.358-67.364-67.67-67.364-18.21 0-34.713 7.284-46.862 18.999-46.098-30.333-108.47-49.638-177.54-52.108l37.77-118.91 102.28 23.966-0.15281 1.4772c0 30.384 24.832 55.088 55.368 55.088 30.511 0 55.317-24.704 55.317-55.088s-24.832-55.114-55.317-55.114c-23.431 0-43.398 14.619-51.472 35.121l-110.25-25.85c-4.8135-1.1715-9.7035 1.6045-11.206 6.3416l-42.125 132.61c-72.279 0.86593-137.76 20.324-185.92 51.574-12.072-11.155-28.092-18.134-45.818-18.134-37.311 0-67.644 30.231-67.644 67.389 0 24.704 13.575 46.123 33.542 57.839-1.3244 7.1821-2.1903 14.441-2.1903 21.826 0 99.607 122.45 180.65 273 180.65 150.54 0 273.02-81.04 273.02-180.65 0-6.9783-0.73857-13.855-1.9101-20.629 21.19-11.384 35.783-33.415 35.783-59.036zm-438.67 46.251c0-22.107 18.083-40.113 40.291-40.113s40.266 18.006 40.266 40.113-18.057 40.087-40.266 40.087c-22.208 0-40.291-17.981-40.291-40.087zm230.77 118.91c-20.298 20.196-52.159 30.027-97.391 30.027l-0.33108-0.0764-0.33109 0.0764c-45.257 0-77.118-9.8308-97.391-30.027-3.6929-3.6674-3.6929-9.6525 0-13.32 3.6929-3.6929 9.7035-3.6929 13.396 0 16.554 16.478 44.035 24.475 83.995 24.475l0.33109 0.0764 0.33108-0.0764c39.96 0 67.44-8.0226 83.995-24.501 3.6929-3.6929 9.7035-3.6674 13.396 0 3.6929 3.6929 3.6929 9.6525-1e-5 13.345zm-4.8135-78.825c-22.208 0-40.266-17.981-40.266-40.087s18.057-40.113 40.266-40.113 40.266 18.006 40.266 40.113-18.057 40.087-40.266 40.087z" fill="#e64f2d" stroke-width="25.468"/>
</svg>
