<svg width="1024" height="512" clip-rule="evenodd" fill-rule="evenodd" stroke-linejoin="round" stroke-miterlimit="1.4142" version="1.1" xml:space="preserve" xmlns="http://www.w3.org/2000/svg"><path d="m674.07 504.26c8.1745 5.7882 18.71 7.2352 28.103 3.6811 9.3931-3.5795 16.298-11.602 18.38-21.325 22.061-103.68 75.576-366.1 95.657-460.41 1.5232-7.1083-1.0155-14.496-6.6005-19.243-5.5851-4.7473-13.328-6.1182-20.233-3.5541-106.45 39.4-434.26 162.4-568.25 211.98-8.5045 3.148-14.039 11.322-13.76 20.284 0.30464 8.9869 6.3467 16.781 15.054 19.395 60.09 17.974 138.97 42.98 138.97 42.98s36.861 111.32 56.079 167.93c2.4117 7.1083 7.9714 12.693 15.308 14.623 7.3114 1.904 15.13-0.10154 20.589-5.255 30.87-29.144 78.597-74.205 78.597-74.205s90.681 66.488 142.11 103.12zm-279.51-220.28 42.624 140.59 9.4692-89.031s164.68-148.54 258.56-233.2c2.7418-2.4879 3.1226-6.6513 0.83776-9.5708-2.2594-2.9195-6.4228-3.6049-9.5454-1.6247-108.81 69.483-301.95 192.84-301.95 192.84z" fill="#e64f2d" stroke-width="25.387"/></svg>
